<svg width="25" height="17" viewBox="0 0 25 17" fill="none" xmlns="http://www.w3.org/2000/svg">
<path d="M18.086 6.66392C18.086 3.51046 14.1846 0.956299 9.36965 0.956299C4.55472 0.956299 0.65332 3.51046 0.65332 6.66392C0.65332 7.88749 1.24419 9.01474 2.24573 9.9458C1.68419 11.0231 0.758084 11.8793 0.745512 11.89C0.65332 11.972 0.628177 12.0933 0.682654 12.2003C0.737131 12.3073 0.854466 12.3715 0.988564 12.3715C2.5223 12.3715 3.79204 11.9328 4.70558 11.4797C6.05493 12.0398 7.65153 12.3715 9.36965 12.3715C14.1846 12.3715 18.086 9.81738 18.086 6.66392ZM23.1985 14.5119C24.2 13.5844 24.7909 12.4536 24.7909 11.23C24.7909 8.84351 22.5489 6.79947 19.3725 5.9469C19.4102 6.18234 19.427 6.42134 19.427 6.66392C19.427 10.4416 14.9137 13.5131 9.36965 13.5131C8.91707 13.5131 8.47707 13.4845 8.04125 13.4453C9.36127 15.4965 12.4623 16.9376 16.0745 16.9376C17.7926 16.9376 19.3892 16.6094 20.7386 16.0458C21.6521 16.4989 22.9219 16.9376 24.4556 16.9376C24.5897 16.9376 24.7112 16.8699 24.7615 16.7664C24.816 16.663 24.7909 16.5417 24.6987 16.4561C24.6861 16.4454 23.76 15.5928 23.1985 14.5119Z" fill="#0FA958"/>
</svg>
