<svg width="21" height="15" viewBox="0 0 21 15" fill="none" xmlns="http://www.w3.org/2000/svg">
<path d="M18.4184 0.0704346H17.4126V9.96364H18.4184C18.9518 9.96364 19.4635 9.80328 19.8407 9.51785C20.2179 9.23241 20.4298 8.84528 20.4298 8.44161V1.59247C20.4298 1.1888 20.2179 0.801664 19.8407 0.516227C19.4635 0.230791 18.9518 0.0704346 18.4184 0.0704346ZM2.32668 9.96364H9.36679L8.23836 12.5267C8.13767 12.7555 8.11024 12.9991 8.15833 13.2374C8.20642 13.4758 8.32865 13.702 8.51496 13.8976C8.70127 14.0932 8.94632 14.2525 9.22993 14.3624C9.51354 14.4723 9.8276 14.5297 10.1462 14.5297H10.3725L15.4012 10.3913V0.0704346H4.33814L0.378577 6.65246L0.315216 6.87544V8.44161C0.315216 8.84528 0.527137 9.23241 0.904359 9.51785C1.28158 9.80328 1.7932 9.96364 2.32668 9.96364Z" fill="#F24E1E"/>
</svg>
