<svg width="23" height="18" viewBox="0 0 23 18" fill="none" xmlns="http://www.w3.org/2000/svg">
<path d="M2.25189 17.5233H3.37784V6.07239H2.25189C1.65465 6.07239 1.08188 6.25799 0.659564 6.58837C0.237252 6.91875 0 7.36684 0 7.83407V15.7616C0 16.2288 0.237252 16.6769 0.659564 17.0073C1.08188 17.3377 1.65465 17.5233 2.25189 17.5233ZM20.267 6.07239H12.3854L13.6487 3.10572C13.7615 2.84096 13.7922 2.55903 13.7383 2.28316C13.6845 2.00728 13.5476 1.74537 13.3391 1.51897C13.1305 1.29258 12.8561 1.10819 12.5386 0.980993C12.2211 0.853795 11.8695 0.787426 11.5128 0.787354H11.2595L5.62973 5.57736V17.5233H18.0152L22.4199 9.95161L22.5189 9.59575V7.83407C22.5189 7.36684 22.2817 6.91875 21.8594 6.58837C21.4371 6.25799 20.8643 6.07239 20.267 6.07239Z" fill="#699BF7"/>
</svg>
