<svg width="15" height="10" viewBox="0 0 20 15" fill="none" xmlns="http://www.w3.org/2000/svg">
<path d="M15.5358 9.26009C17.5278 9.26009 19.1358 10.5009 19.1358 12.0381C19.1358 13.5753 17.5278 14.8161 15.5358 14.8161C13.5438 14.8161 11.9358 13.5753 11.9358 12.0381C11.9358 11.8159 11.9718 11.6122 12.0438 11.3992L6.78783 9.26935C6.12783 9.83422 5.19183 10.1861 4.13583 10.1861C2.14383 10.1861 0.535828 8.94525 0.535828 7.40807C0.535828 5.8709 2.14383 4.63005 4.13583 4.63005C5.19183 4.63005 6.12783 4.99119 6.78783 5.5468L12.0438 3.41697C11.9718 3.20399 11.9358 3.00027 11.9358 2.77803C11.9358 1.24085 13.5438 0 15.5358 0C17.5278 0 19.1358 1.24085 19.1358 2.77803C19.1358 4.3152 17.5278 5.55606 15.5358 5.55606C14.4798 5.55606 13.5438 5.19491 12.8838 4.63931L7.62783 6.76913C7.77317 7.18771 7.77317 7.62844 7.62783 8.04702L12.8838 10.1768C13.5438 9.61198 14.4798 9.26009 15.5358 9.26009Z" fill="#545454"/>
</svg>
